<?xml version="1.0" standalone="no"?>
<!DOCTYPE svg PUBLIC "-//W3C//DTD SVG 20010904//EN"
 "http://www.w3.org/TR/2001/REC-SVG-20010904/DTD/svg10.dtd">
<svg version="1.0" xmlns="http://www.w3.org/2000/svg"
 width="244.000000pt" height="206.000000pt" viewBox="0 0 244.000000 206.000000"
 preserveAspectRatio="xMidYMid meet">

<g transform="translate(0.000000,206.000000) scale(0.100000,-0.100000)"
fill="#000000" stroke="none">
<path d="M174 1922 c-51 -24 -89 -73 -104 -132 -8 -32 -10 -264 -8 -785 l3
-740 28 -57 c32 -65 68 -92 144 -108 60 -13 115 -2 175 36 31 20 42 23 54 13
8 -6 14 -18 14 -25 0 -8 9 -14 20 -14 20 0 20 7 20 425 l0 425 35 0 c24 0 35
5 35 15 0 13 -23 15 -150 15 -127 0 -150 -2 -150 -15 0 -11 12 -15 45 -15 l46
0 -3 -390 -3 -390 -25 -24 c-36 -35 -69 -40 -107 -17 -22 14 -35 32 -43 61 -8
28 -10 283 -8 838 3 783 3 798 23 832 27 46 61 50 104 14 39 -32 62 -77 90
-170 24 -82 51 -247 51 -316 0 -41 3 -48 20 -48 20 0 20 5 18 288 -3 247 -5
287 -18 287 -8 0 -16 -10 -18 -22 -4 -29 -14 -29 -68 3 -62 36 -161 43 -220
16z"/>
<path d="M1132 1808 c-21 -209 -172 -1553 -179 -1587 -8 -43 -44 -81 -78 -81
-16 0 -25 -6 -25 -15 0 -12 19 -15 115 -15 91 0 115 3 115 14 0 7 -13 16 -30
19 -16 4 -36 17 -45 30 -15 23 -13 49 20 346 19 177 35 324 35 327 0 2 42 4
94 4 l94 0 6 -37 c3 -21 19 -166 36 -323 16 -157 32 -300 35 -317 6 -33 6 -33
-35 -33 -29 0 -40 -4 -40 -15 0 -13 23 -15 150 -15 127 0 150 2 150 15 0 11
-11 15 -40 15 -33 0 -40 4 -44 23 -3 12 -46 393 -96 847 -50 454 -93 844 -96
868 l-6 42 -62 0 -63 0 -11 -112z m68 -526 c22 -195 40 -365 40 -378 0 -23 -2
-24 -85 -24 -81 0 -85 1 -85 23 0 12 18 180 40 372 22 193 40 357 41 365 2 40
12 -33 49 -358z"/>
<path d="M1830 1910 c0 -5 18 -10 40 -10 l40 0 0 -880 0 -880 -40 0 c-29 0
-40 -4 -40 -15 0 -13 26 -15 170 -15 144 0 170 2 170 15 0 12 -13 15 -55 15
l-55 0 0 354 0 353 84 6 c125 9 192 43 222 114 20 47 20 789 0 836 -18 45 -67
84 -128 102 -61 18 -408 22 -408 5z m366 -41 c13 -12 28 -39 34 -58 13 -49 13
-794 0 -843 -15 -54 -51 -78 -116 -78 l-54 0 0 506 0 507 56 -6 c39 -4 64 -13
80 -28z"/>
</g>
</svg>
